<?xml version="1.0" encoding="UTF-8"?><svg id="Camada_2" xmlns="http://www.w3.org/2000/svg" viewBox="0 0 34.5 66.31"><defs><style>.cls-1{fill:#fff;}</style></defs><g id="svg10"><g id="FACEBOOK"><path class="cls-1" d="M34.49,26.89l-1.14,9.21c-.1,.86-.86,1.52-1.71,1.52h-9.88l-.09,28.69H9.22v-28.69H1.81c-.95,0-1.71-.76-1.71-1.71l-.1-9.31c0-.95,.76-1.71,1.81-1.71h7.41V15.96C9.22,5.6,15.49,0,24.8,0h7.51c1.05,0,1.8,.76,1.8,1.71v7.79c0,.95-.76,1.8-1.8,1.8h-4.66c-4.94,0-5.98,2.38-5.98,5.89v7.7h11.11c1.05,0,1.81,.95,1.71,2"/></g></g></svg>